<?xml version="1.0" standalone="no"?><!DOCTYPE svg PUBLIC "-//W3C//DTD SVG 1.1//EN" "http://www.w3.org/Graphics/SVG/1.1/DTD/svg11.dtd"><svg t="1733799009072" class="icon" viewBox="0 0 1024 1024" version="1.1" xmlns="http://www.w3.org/2000/svg" p-id="1151" width="16" height="16" xmlns:xlink="http://www.w3.org/1999/xlink"><path d="M504.97 396.58m-136.65 0a136.65 136.65 0 1 0 273.3 0 136.65 136.65 0 1 0-273.3 0Z" fill="#FFFFFF" p-id="1152"></path><path d="M504.97 538.23c-78.11 0-141.65-63.54-141.65-141.65s63.54-141.65 141.65-141.65 141.65 63.54 141.65 141.65-63.54 141.65-141.65 141.65z m0-273.3c-72.59 0-131.65 59.06-131.65 131.65s59.06 131.65 131.65 131.65 131.65-59.06 131.65-131.65-59.06-131.65-131.65-131.65z" fill="#FCCF8D" p-id="1153"></path><path d="M504.6 712.24m-186.76 0a186.76 186.76 0 1 0 373.52 0 186.76 186.76 0 1 0-373.52 0Z" fill="#FFFFFF" p-id="1154"></path><path d="M504.6 904c-105.74 0-191.76-86.02-191.76-191.76s86.02-191.76 191.76-191.76 191.76 86.02 191.76 191.76S610.34 904 504.6 904z m0-373.51c-100.22 0-181.76 81.54-181.76 181.76s81.54 181.76 181.76 181.76 181.76-81.54 181.76-181.76-81.54-181.76-181.76-181.76z" fill="#FCCF8D" p-id="1155"></path><path d="M642.38 557.89v168.65c0 17.92-14.55 32.47-32.47 32.47h-7.45c-17.92 0-32.47-14.55-32.47-32.47V557.89h72.39z" fill="#4A7F46" p-id="1156"></path><path d="M609.91 764.01h-7.45c-20.66 0-37.47-16.81-37.47-37.47V552.89h82.39v173.65c0 20.66-16.81 37.47-37.47 37.47z m-34.92-201.12v163.65c0 15.15 12.32 27.47 27.47 27.47h7.45c15.15 0 27.47-12.32 27.47-27.47V562.89h-62.39z" fill="#FCCF8D" p-id="1157"></path><path d="M412.12 484.69h191.1c21.62 0 39.16 17.55 39.16 39.16v57.81H372.95v-57.81c0-21.62 17.55-39.16 39.16-39.16z" fill="#4A7F46" p-id="1158"></path><path d="M647.38 586.67H367.95v-62.81c0-24.35 19.81-44.16 44.16-44.16h191.1c24.35 0 44.16 19.81 44.16 44.16v62.81z m-269.43-10h259.43v-52.81c0-18.84-15.33-34.16-34.16-34.16h-191.1c-18.84 0-34.16 15.33-34.16 34.16v52.81z" fill="#FCCF8D" p-id="1159"></path><path d="M481.85 366.67c-2.76 0-5-2.24-5-5 0-1.06-1.19-2.41-3.11-3.52-2.82-1.64-6.83-2.57-11.01-2.57s-8.19 0.94-11.01 2.57c-1.92 1.11-3.11 2.46-3.11 3.52 0 2.76-2.24 5-5 5s-5-2.24-5-5c0-9.03 10.59-16.1 24.12-16.1s24.12 7.07 24.12 16.1c0 2.76-2.24 5-5 5zM581.32 366.67c-2.76 0-5-2.24-5-5 0-1.06-1.19-2.41-3.11-3.52-2.82-1.64-6.83-2.57-11.01-2.57s-8.19 0.94-11.01 2.57c-1.92 1.11-3.11 2.46-3.11 3.52 0 2.76-2.24 5-5 5s-5-2.24-5-5c0-9.03 10.59-16.1 24.12-16.1s24.12 7.07 24.12 16.1c0 2.76-2.24 5-5 5zM583.72 400.99c7.04 2.89 7.04 12.84 0 15.72-10.47 4.29-24.78 9.37-40.24 12.61-31.05 6.51-46.81 0.37-47.32-20.29-0.49-20.34 16.24-26.98 47.32-20.61 15.46 3.17 29.78 8.26 40.25 12.56zM427.23 253.94s-8.31-122.27 79.01-122.66c74.13-0.33 92.03 40.74 96.26 59.74 4.23 19 0 32.1 0 32.1s-13.1-27-20.38-23.31c-7.28 3.69 1.74 54.12 1.74 54.12H427.23z" fill="#F97319" p-id="1160"></path><path d="M604.62 232.31m-15.78 0a15.78 15.78 0 1 0 31.56 0 15.78 15.78 0 1 0-31.56 0Z" fill="#4A7F46" p-id="1161"></path><path d="M415.1 246.79m16.86 0l145.22 0q16.86 0 16.86 16.86l0 11.83q0 16.86-16.86 16.86l-145.22 0q-16.86 0-16.86-16.86l0-11.83q0-16.86 16.86-16.86Z" fill="#4A7F46" p-id="1162"></path><path d="M228.97 500.97c-0.99 0-1.99-0.15-2.97-0.45l-49.97-15.55c-5.27-1.64-8.22-7.25-6.58-12.52 1.64-5.27 7.25-8.22 12.52-6.58l33.77 10.51-11.75-56.7c-1.12-5.41 2.35-10.7 7.76-11.82 5.41-1.12 10.7 2.35 11.82 7.76l15.2 73.33c0.72 3.47-0.45 7.06-3.07 9.44a10.017 10.017 0 0 1-6.72 2.59z" fill="#FCCF8D" p-id="1163"></path><path d="M342.66 614.88c-2.56 0-5.12-0.98-7.07-2.93l-113.6-113.6c-3.91-3.91-3.91-10.24 0-14.14s10.24-3.91 14.14 0l113.6 113.6c3.9 3.91 3.9 10.24 0 14.14a9.973 9.973 0 0 1-7.07 2.93zM785.33 511.19c-2.79 0-5.49-1.17-7.41-3.28a10.002 10.002 0 0 1-2.14-9.69l15.55-49.97c1.64-5.27 7.25-8.22 12.52-6.58 5.27 1.64 8.22 7.25 6.58 12.52l-10.51 33.77 56.7-11.75c5.41-1.12 10.7 2.35 11.82 7.76 1.12 5.41-2.35 10.7-7.76 11.82l-73.33 15.2c-0.68 0.14-1.36 0.21-2.03 0.21z" fill="#FCCF8D" p-id="1164"></path><path d="M671.41 624.88c-2.56 0-5.12-0.98-7.07-2.93-3.91-3.91-3.9-10.24 0-14.14l113.6-113.6c3.91-3.9 10.24-3.9 14.14 0 3.91 3.91 3.9 10.24 0 14.14l-113.6 113.6a9.973 9.973 0 0 1-7.07 2.93z" fill="#FCCF8D" p-id="1165"></path></svg>